<svg fill="none" height="31" viewBox="0 0 183 31" width="183" xmlns="http://www.w3.org/2000/svg"><path d="m30 7.68945c0-3.86599-3.134-6.999997-7-6.999997h-5.2857c-1.1046 0-2 .895427-2 1.999997v26.00005c0 1.1045.8954 2 2 2h5.2857c3.866 0 7-3.1341 7-7z" fill="#5c6470"/><path d="m14.2856 28.6895c0 1.1045-.8954 2-2 2h-5.28567c-3.86599 0-6.99999962-3.1341-6.99999962-7v-7.2858h7.28570962c3.86596 0 6.99996 3.134 6.99996 7z" fill="#e36176"/><path d="m14.2856 2.68945c0-1.10456-.8954-1.999997-2-1.999997h-5.28567c-3.86599 0-6.99999962 3.134007-6.99999962 6.999997v7.28575h7.28570962c3.86596 0 6.99996-3.134 6.99996-7.00003z" fill="#5c6470"/><g fill="#000"><path d="m41.9502 23.3395c0 .275.175.45.45.45.725 0 1.125-.55 1.2-1.3.725.7 1.875 1.475 3.65 1.475 2.95 0 5.175-2.775 5.175-6.075 0-3.375-2-6-5.45-6-1.925 0-3.2.725-3.2.725v-5.87505c0-.275-.275-.55-.55-.55h-.75c-.3 0-.525.275-.525.55zm1.825-9.05s1.325-.725 2.925-.725c2.525 0 3.85 2.05 3.85 4.35 0 2.25-1.4 4.375-3.5 4.375-2.075 0-3.275-1.9-3.275-1.9z"/><path d="m53.8477 17.8895c0 3.3 2.6 6.075 5.8 6.075s5.8-2.775 5.8-6.075c0-3.25-2.6-6-5.8-6s-5.8 2.75-5.8 6zm1.825 0c0-2.35 1.7-4.325 3.975-4.325s3.95 1.975 3.95 4.325c0 2.4-1.675 4.4-3.95 4.4s-3.975-2-3.975-4.4z"/><path d="m66.8369 17.8895c0 3.3 2.6 6.075 5.8 6.075s5.8-2.775 5.8-6.075c0-3.25-2.6-6-5.8-6s-5.8 2.75-5.8 6zm1.825 0c0-2.35 1.7-4.325 3.975-4.325s3.95 1.975 3.95 4.325c0 2.4-1.675 4.4-3.95 4.4s-3.975-2-3.975-4.4z"/><path d="m81.1797 13.7395v6.825c0 1.8 1.15 3.4 3.175 3.4 1.175 0 2.175-.4 2.725-.7.3-.175.35-.375.2-.75l-.2-.5c-.1-.275-.275-.5-.725-.225-.475.275-1.075.5-1.775.5-.8 0-1.55-.525-1.55-1.725v-6.825h3.4c.325 0 .575-.25.575-.55v-.5c0-.325-.25-.55-.575-.55h-3.4v-3.25005c0-.3-.225-.575-.525-.55l-.775.05c-.275.025-.55.25-.55.55v3.20005h-1.525c-.35 0-.575.225-.575.55v.5c0 .3.225.55.575.55z"/><path d="m92.1273 23.9645c2.35 0 3.925-1.475 3.925-3.3 0-2.1-1.725-2.85-3.725-3.775-1.4-.65-2.2-1.025-2.2-2.05 0-.55.425-1.275 1.7-1.275 1.075 0 1.875.375 2.375.675.25.15.625.125.8-.2l.25-.475c.175-.325.125-.575-.125-.775-.55-.4-1.8-.9-3.3-.9-2.675 0-3.575 1.825-3.575 3.025 0 1.975 1.75 2.8 3.275 3.55 1.675.825 2.575 1.275 2.575 2.375 0 .9-.8 1.45-1.975 1.45-1.475 0-2.475-.725-2.875-1.025-.325-.225-.525-.125-.675.15l-.35.65c-.1.2-.05.375.075.5.6.55 1.9 1.4 3.825 1.4z"/><path d="m98.8086 13.7395v6.825c0 1.8 1.15 3.4 3.1754 3.4 1.175 0 2.175-.4 2.725-.7.3-.175.35-.375.2-.75l-.2-.5c-.1-.275-.275-.5-.725-.225-.475.275-1.075.5-1.775.5-.8 0-1.55-.525-1.55-1.725v-6.825h3.4c.325 0 .575-.25.575-.55v-.5c0-.325-.25-.55-.575-.55h-3.4v-3.25005c0-.3-.225-.575-.525-.55l-.7754.05c-.275.025-.55.25-.55.55v3.20005h-1.525c-.35 0-.575.225-.575.55v.5c0 .3.225.55.575.55z"/><path d="m106.531 23.1395c0 .3.25.55.55.55h.75c.275 0 .55-.25.55-.55v-8s.9-1.475 3.125-1.475c.55 0 .975.2 1.25.325s.55.1.675-.275l.325-.9c.275-.8-1.15-.925-2.025-.925-1.8 0-2.925.8-3.55 1.45-.075-.75-.475-1.3-1.2-1.3-.275 0-.45.175-.45.45z"/><path d="m114.153 20.1895c0 2.325 1.55 3.775 3.575 3.775 1.8 0 3.025-.9 3.625-1.525.075.775.475 1.35 1.225 1.35.275 0 .45-.175.45-.45v-6.6c0-3.1-1.375-4.85-4.325-4.85-1.6 0-2.65.5-3.225.75-.275.125-.45.275-.35.625l.25.675c.1.275.25.425.55.3.525-.175 1.4-.675 2.675-.675 1.65 0 2.675 1.05 2.65 3.175 0 0-1.25-.375-2.475-.375-2.975 0-4.625 1.625-4.625 3.825zm1.825 0c0-1.475 1.2-2.25 2.8-2.25 1.15 0 2.075.25 2.45.45v2.35c-.5.75-1.75 1.55-3.175 1.55-1.275 0-2.075-.925-2.075-2.1z"/><path d="m127.645 23.0145s1.275.95 3.2.95c3.175 0 5.45-2.675 5.45-6.05 0-3.3-2.225-6.025-5.375-6.025-1.55 0-2.775.625-3.5 1.2-.125-.625-.525-1.05-1.15-1.05-.275 0-.45.175-.45.45v16.6c0 .3.25.55.55.55h.725c.275 0 .55-.25.55-.55zm0-8.05s1.2-1.4 3.05-1.4c2.325 0 3.725 2.075 3.725 4.325 0 2.525-1.625 4.4-3.85 4.4-1.6 0-2.925-1-2.925-1z"/><path d="m137.418 17.9145c0 3.5 2.375 6.05 5.525 6.05 1.825 0 3.025-.9 3.7-1.625.15.825.75 1.45 1.8 1.45.4 0 .6-.25.6-.525v-16.52505c0-.275-.25-.55-.55-.55h-2.025c-.275 0-.55.275-.55.55v5.62505c-.525-.2-1.625-.475-2.775-.475-3.45 0-5.725 2.65-5.725 6.025zm8.5 1.6c-.25.65-1.05 1.6-2.55 1.6-1.8 0-2.725-1.575-2.725-3.2s.975-3.175 2.875-3.175c1.45 0 2.4.65 2.4.65z"/><path d="m150.454 20.0145c0 2.475 1.6 3.95 3.9 3.95 1.7 0 2.825-.725 3.525-1.35.225.675.8 1.175 1.725 1.175.4 0 .6-.25.6-.525v-6.35c0-3.15-1.575-5.025-4.925-5.025-1.575 0-3.125.475-3.375.575-.25.075-.475.275-.375.7l.25 1.3c.05.35.275.625.65.5.675-.2 1.65-.425 2.675-.425 1.225 0 2.225.7 2.175 2.175 0 0-1.05-.325-2.225-.325-2.925 0-4.6 1.575-4.6 3.625zm3 0c0-1.025.725-1.65 2.05-1.65.925 0 1.7.35 1.7.35v1.7c-.15.425-1.05 1.225-2.075 1.225-1.075 0-1.675-.65-1.675-1.625z"/><path d="m165.739 23.9645c2.9 0 4.45-1.625 4.45-3.45 0-2.3-1.6-3.1-3.825-4-1.075-.45-1.65-.725-1.65-1.25 0-.375.325-.75 1.1-.75.95 0 1.75.325 2.3.575.25.1.55.05.725-.225l.65-1.325c.15-.3 0-.6-.25-.8-.625-.4-1.725-.85-3.425-.85-2.825 0-4.15 1.625-4.15 3.375s1 2.8 3.225 3.65c1.525.6 2.175 1.075 2.175 1.6 0 .5-.4.825-1.275.825-1.2 0-2.025-.425-2.55-.75-.275-.175-.55-.075-.675.2l-.75 1.5c-.125.25 0 .525.15.625.65.45 1.85 1.05 3.775 1.05z"/><path d="m171.641 23.1395c0 .3.275.55.55.55h1.975c.45 0 .6-.225.6-.55v-6.375c.3-1.175 1.05-2.025 2.4-2.025 1.375 0 2.1.975 2.1 2.575v5.825c0 .3.25.55.55.55h2.025c.275 0 .55-.25.55-.55v-5.8c0-2.9-1-5.45-4.675-5.45-1.375 0-2.375.475-2.95.975v-6.12505c0-.275-.25-.55-.55-.55h-2.025c-.275 0-.55.275-.55.55z"/></g></svg>