<svg width="15" height="23" viewBox="0 0 15 23" fill="none" xmlns="http://www.w3.org/2000/svg">
<g clip-path="url(#clip0)">
<path d="M7.46704 11.2521C7.46704 10.262 7.86037 9.3124 8.56051 8.61227C9.26064 7.91213 10.2102 7.5188 11.2004 7.5188C12.1905 7.5188 13.1401 7.91213 13.8402 8.61227C14.5404 9.3124 14.9337 10.262 14.9337 11.2521C14.9337 12.2423 14.5404 13.1919 13.8402 13.892C13.1401 14.5921 12.1905 14.9855 11.2004 14.9855C10.2102 14.9855 9.26064 14.5921 8.56051 13.892C7.86037 13.1919 7.46704 12.2423 7.46704 11.2521V11.2521Z" fill="#1ABCFE"/>
<path d="M0 18.7187C0 17.7285 0.393332 16.779 1.09347 16.0788C1.7936 15.3787 2.74319 14.9854 3.73333 14.9854H7.46667V18.7187C7.46667 19.7088 7.07333 20.6584 6.3732 21.3585C5.67306 22.0587 4.72347 22.452 3.73333 22.452C2.74319 22.452 1.7936 22.0587 1.09347 21.3585C0.393332 20.6584 0 19.7088 0 18.7187H0Z" fill="#0ACF83"/>
<path d="M7.46704 0.052002V7.51867H11.2004C12.1905 7.51867 13.1401 7.12534 13.8402 6.4252C14.5404 5.72506 14.9337 4.77548 14.9337 3.78534C14.9337 2.79519 14.5404 1.84561 13.8402 1.14547C13.1401 0.445334 12.1905 0.052002 11.2004 0.052002L7.46704 0.052002Z" fill="#FF7262"/>
<path d="M0 3.78534C0 4.77548 0.393332 5.72506 1.09347 6.4252C1.7936 7.12534 2.74319 7.51867 3.73333 7.51867H7.46667V0.052002H3.73333C2.74319 0.052002 1.7936 0.445334 1.09347 1.14547C0.393332 1.84561 0 2.79519 0 3.78534H0Z" fill="#F24E1E"/>
<path d="M0 11.2521C0 12.2423 0.393332 13.1919 1.09347 13.892C1.7936 14.5921 2.74319 14.9855 3.73333 14.9855H7.46667V7.5188H3.73333C2.74319 7.5188 1.7936 7.91213 1.09347 8.61227C0.393332 9.3124 0 10.262 0 11.2521Z" fill="#A259FF"/>
</g>
<defs>
<clipPath id="clip0">
<rect width="14.9333" height="22.4" fill="white" transform="translate(0 0.052002)"/>
</clipPath>
</defs>
</svg>
