<svg fill="none" height="24" viewBox="0 0 26 24" width="26" xmlns="http://www.w3.org/2000/svg" xmlns:xlink="http://www.w3.org/1999/xlink"><clipPath id="a"><path d="m.740601.052002h24.9906v23.4287h-24.9906z"/></clipPath><g clip-path="url(#a)"><path d="m6.18211.823476 7.02879-.771474 7.0288.771474 5.4416 7.595924-12.4704 15.0613-12.470299-15.0613z" fill="#fdb300"/><path d="m5.79193 8.41943 7.41897 15.06137-12.470299-15.06137z" fill="#ea6c00"/><path d="m20.6298 8.41943-7.4198 15.06137 12.4703-15.06137z" fill="#ea6c00"/><path d="m5.79187 8.41943h14.83803l-7.419 15.06137z" fill="#fdad00"/><path d="m13.2109.052002-7.02885.771474-.39018 7.595924z" fill="#fdd231"/><path d="m13.21.052002 7.0288.771474.3902 7.595924z" fill="#fdd231"/><path d="m25.6805 8.41941-5.4416-7.595924.391 7.595924zm-24.939899 0 5.441509-7.595924-.39018 7.595924z" fill="#fdad00"/><path d="m13.2109.052002-7.41903 8.367398h14.83803z" fill="#feeeb7"/></g></svg>