<svg width="21" height="13" viewBox="0 0 21 13" fill="none" xmlns="http://www.w3.org/2000/svg">
<path d="M10.5 0.241455C6.48773 0.241455 2.84919 2.43661 0.164314 6.00212C-0.0547714 6.29423 -0.0547714 6.70233 0.164314 6.99445C2.84919 10.5643 6.48773 12.7594 10.5 12.7594C14.5123 12.7594 18.1508 10.5643 20.8357 6.99874C21.0548 6.70663 21.0548 6.29853 20.8357 6.00641C18.1508 2.43661 14.5123 0.241455 10.5 0.241455ZM10.7878 10.9079C8.12442 11.0755 5.92498 8.8803 6.09251 6.21261C6.22998 4.01316 8.01273 2.23041 10.2122 2.09294C12.8756 1.92541 15.075 4.12056 14.9075 6.78825C14.7657 8.9834 12.983 10.7662 10.7878 10.9079ZM10.6546 8.87171C9.21985 8.96192 8.03421 7.78058 8.12872 6.34578C8.20175 5.16014 9.16401 4.20218 10.3496 4.12486C11.7844 4.03464 12.9701 5.21599 12.8756 6.65078C12.7983 7.84072 11.836 8.79868 10.6546 8.87171Z" fill="#282828"/>
</svg>
